<svg xmlns="http://www.w3.org/2000/svg" xmlns:xlink="http://www.w3.org/1999/xlink" version="1.1" class="marks" width="420" height="195" viewBox="0 0 420 195"><rect width="420" height="195" fill="white"/><g fill="none" stroke-miterlimit="10" transform="translate(70,65)"><g class="mark-group role-frame root" role="graphics-object" aria-roledescription="group mark container"><g transform="translate(0,0)"><path class="background" aria-hidden="true" d="M0.5,0.5h280v60h-280Z" stroke="#ddd"/><g><g class="mark-group role-axis" role="graphics-symbol" aria-roledescription="axis" aria-label="X-axis titled 'Statistical organization' for a discrete scale with 14 values: IMF, ILO, NB, SGR, UNICEF, ending with ESTAT"><g transform="translate(0.5,60.5)"><path class="background" aria-hidden="true" d="M0,0h0v0h0Z" pointer-events="none"/><g><g class="mark-rule role-axis-tick" pointer-events="none"><line transform="translate(10,0)" x2="0" y2="5" stroke="#888" stroke-width="1" opacity="1"/><line transform="translate(30,0)" x2="0" y2="5" stroke="#888" stroke-width="1" opacity="1"/><line transform="translate(50,0)" x2="0" y2="5" stroke="#888" stroke-width="1" opacity="1"/><line transform="translate(70,0)" x2="0" y2="5" stroke="#888" stroke-width="1" opacity="1"/><line transform="translate(90,0)" x2="0" y2="5" stroke="#888" stroke-width="1" opacity="1"/><line transform="translate(110,0)" x2="0" y2="5" stroke="#888" stroke-width="1" opacity="1"/><line transform="translate(130,0)" x2="0" y2="5" stroke="#888" stroke-width="1" opacity="1"/><line transform="translate(150,0)" x2="0" y2="5" stroke="#888" stroke-width="1" opacity="1"/><line transform="translate(170,0)" x2="0" y2="5" stroke="#888" stroke-width="1" opacity="1"/><line transform="translate(190,0)" x2="0" y2="5" stroke="#888" stroke-width="1" opacity="1"/><line transform="translate(210,0)" x2="0" y2="5" stroke="#888" stroke-width="1" opacity="1"/><line transform="translate(230,0)" x2="0" y2="5" stroke="#888" stroke-width="1" opacity="1"/><line transform="translate(250,0)" x2="0" y2="5" stroke="#888" stroke-width="1" opacity="1"/><line transform="translate(270,0)" x2="0" y2="5" stroke="#888" stroke-width="1" opacity="1"/></g><g class="mark-text role-axis-label" pointer-events="none"><text text-anchor="end" transform="translate(9.5,7) rotate(270) translate(0,3)" font-family="sans-serif" font-size="10px" fill="#000" opacity="1">IMF</text><text text-anchor="end" transform="translate(29.5,7) rotate(270) translate(0,3)" font-family="sans-serif" font-size="10px" fill="#000" opacity="1">ILO</text><text text-anchor="end" transform="translate(49.5,7) rotate(270) translate(0,3)" font-family="sans-serif" font-size="10px" fill="#000" opacity="1">NB</text><text text-anchor="end" transform="translate(69.5,7) rotate(270) translate(0,3)" font-family="sans-serif" font-size="10px" fill="#000" opacity="1">SGR</text><text text-anchor="end" transform="translate(89.5,7) rotate(270) translate(0,3)" font-family="sans-serif" font-size="10px" fill="#000" opacity="1">UNICEF</text><text text-anchor="end" transform="translate(109.5,7) rotate(270) translate(0,3)" font-family="sans-serif" font-size="10px" fill="#000" opacity="1">UNSD</text><text text-anchor="end" transform="translate(129.5,7) rotate(270) translate(0,3)" font-family="sans-serif" font-size="10px" fill="#000" opacity="1">WB</text><text text-anchor="end" transform="translate(149.5,7) rotate(270) translate(0,3)" font-family="sans-serif" font-size="10px" fill="#000" opacity="1">ABS</text><text text-anchor="end" transform="translate(169.5,7) rotate(270) translate(0,3)" font-family="sans-serif" font-size="10px" fill="#000" opacity="1">ECB</text><text text-anchor="end" transform="translate(189.5,7) rotate(270) translate(0,3)" font-family="sans-serif" font-size="10px" fill="#000" opacity="1">INSEE</text><text text-anchor="end" transform="translate(209.5,7) rotate(270) translate(0,3)" font-family="sans-serif" font-size="10px" fill="#000" opacity="1">ISTAT</text><text text-anchor="end" transform="translate(229.5,7) rotate(270) translate(0,3)" font-family="sans-serif" font-size="10px" fill="#000" opacity="1">SPC</text><text text-anchor="end" transform="translate(249.5,7) rotate(270) translate(0,3)" font-family="sans-serif" font-size="10px" fill="#000" opacity="1">UNESCO</text><text text-anchor="end" transform="translate(269.5,7) rotate(270) translate(0,3)" font-family="sans-serif" font-size="10px" fill="#000" opacity="1">ESTAT</text></g><g class="mark-rule role-axis-domain" pointer-events="none"><line transform="translate(0,0)" x2="280" y2="0" stroke="#888" stroke-width="1" opacity="1"/></g><g class="mark-text role-axis-title" pointer-events="none"><text text-anchor="middle" transform="translate(140,62.31666564941406)" font-family="sans-serif" font-size="11px" font-weight="bold" fill="#000" opacity="1">Statistical organization</text></g></g><path class="foreground" aria-hidden="true" d="" pointer-events="none" display="none"/></g></g><g class="mark-group role-axis" role="graphics-symbol" aria-roledescription="axis" aria-label="Y-axis titled 'Response Content type' for a discrete scale with 3 values: html, json, xml"><g transform="translate(0.5,0.5)"><path class="background" aria-hidden="true" d="M0,0h0v0h0Z" pointer-events="none"/><g><g class="mark-rule role-axis-tick" pointer-events="none"><line transform="translate(0,10)" x2="-5" y2="0" stroke="#888" stroke-width="1" opacity="1"/><line transform="translate(0,30)" x2="-5" y2="0" stroke="#888" stroke-width="1" opacity="1"/><line transform="translate(0,50)" x2="-5" y2="0" stroke="#888" stroke-width="1" opacity="1"/></g><g class="mark-text role-axis-label" pointer-events="none"><text text-anchor="end" transform="translate(-7,12.5)" font-family="sans-serif" font-size="10px" fill="#000" opacity="1">html</text><text text-anchor="end" transform="translate(-7,32.5)" font-family="sans-serif" font-size="10px" fill="#000" opacity="1">json</text><text text-anchor="end" transform="translate(-7,52.5)" font-family="sans-serif" font-size="10px" fill="#000" opacity="1">xml</text></g><g class="mark-rule role-axis-domain" pointer-events="none"><line transform="translate(0,0)" x2="0" y2="60" stroke="#888" stroke-width="1" opacity="1"/></g><g class="mark-text role-axis-title" pointer-events="none"><text text-anchor="middle" transform="translate(-33.766666412353516,30) rotate(-90) translate(0,-2)" font-family="sans-serif" font-size="11px" font-weight="bold" fill="#000" opacity="1">Response Content type</text></g></g><path class="foreground" aria-hidden="true" d="" pointer-events="none" display="none"/></g></g><g class="mark-rect role-mark marks" role="graphics-object" aria-roledescription="rect mark container"><path aria-label="Statistical organization: IMF; Response Content type: xml" role="graphics-symbol" aria-roledescription="bar" d="M1,41h18v18h-18Z" fill="#4c78a8"/><path aria-label="Statistical organization: IMF; Response Content type: xml" role="graphics-symbol" aria-roledescription="bar" d="M1,41h18v18h-18Z" fill="#4c78a8"/><path aria-label="Statistical organization: IMF; Response Content type: xml" role="graphics-symbol" aria-roledescription="bar" d="M1,41h18v18h-18Z" fill="#4c78a8"/><path aria-label="Statistical organization: IMF; Response Content type: xml" role="graphics-symbol" aria-roledescription="bar" d="M1,41h18v18h-18Z" fill="#4c78a8"/><path aria-label="Statistical organization: UNSD; Response Content type: json" role="graphics-symbol" aria-roledescription="bar" d="M101,21h18v18h-18Z" fill="#4c78a8"/><path aria-label="Statistical organization: UNSD; Response Content type: json" role="graphics-symbol" aria-roledescription="bar" d="M101,21h18v18h-18Z" fill="#4c78a8"/><path aria-label="Statistical organization: UNSD; Response Content type: json" role="graphics-symbol" aria-roledescription="bar" d="M101,21h18v18h-18Z" fill="#4c78a8"/><path aria-label="Statistical organization: UNSD; Response Content type: json" role="graphics-symbol" aria-roledescription="bar" d="M101,21h18v18h-18Z" fill="#4c78a8"/><path aria-label="Statistical organization: WB; Response Content type: json" role="graphics-symbol" aria-roledescription="bar" d="M121,21h18v18h-18Z" fill="#4c78a8"/><path aria-label="Statistical organization: WB; Response Content type: json" role="graphics-symbol" aria-roledescription="bar" d="M121,21h18v18h-18Z" fill="#4c78a8"/><path aria-label="Statistical organization: WB; Response Content type: json" role="graphics-symbol" aria-roledescription="bar" d="M121,21h18v18h-18Z" fill="#4c78a8"/><path aria-label="Statistical organization: WB; Response Content type: json" role="graphics-symbol" aria-roledescription="bar" d="M121,21h18v18h-18Z" fill="#4c78a8"/><path aria-label="Statistical organization: ABS; Response Content type: json" role="graphics-symbol" aria-roledescription="bar" d="M141,21h18v18h-18Z" fill="#4c78a8"/><path aria-label="Statistical organization: ABS; Response Content type: json" role="graphics-symbol" aria-roledescription="bar" d="M141,21h18v18h-18Z" fill="#4c78a8"/><path aria-label="Statistical organization: ABS; Response Content type: json" role="graphics-symbol" aria-roledescription="bar" d="M141,21h18v18h-18Z" fill="#4c78a8"/><path aria-label="Statistical organization: ABS; Response Content type: json" role="graphics-symbol" aria-roledescription="bar" d="M141,21h18v18h-18Z" fill="#4c78a8"/><path aria-label="Statistical organization: ECB; Response Content type: json" role="graphics-symbol" aria-roledescription="bar" d="M161,21h18v18h-18Z" fill="#4c78a8"/><path aria-label="Statistical organization: ECB; Response Content type: json" role="graphics-symbol" aria-roledescription="bar" d="M161,21h18v18h-18Z" fill="#4c78a8"/><path aria-label="Statistical organization: ECB; Response Content type: json" role="graphics-symbol" aria-roledescription="bar" d="M161,21h18v18h-18Z" fill="#4c78a8"/><path aria-label="Statistical organization: ECB; Response Content type: json" role="graphics-symbol" aria-roledescription="bar" d="M161,21h18v18h-18Z" fill="#4c78a8"/><path aria-label="Statistical organization: ESTAT; Response Content type: html" role="graphics-symbol" aria-roledescription="bar" d="M261,1h18v18h-18Z" fill="#4c78a8"/><path aria-label="Statistical organization: ESTAT; Response Content type: html" role="graphics-symbol" aria-roledescription="bar" d="M261,1h18v18h-18Z" fill="#4c78a8"/><path aria-label="Statistical organization: ESTAT; Response Content type: html" role="graphics-symbol" aria-roledescription="bar" d="M261,1h18v18h-18Z" fill="#4c78a8"/><path aria-label="Statistical organization: ESTAT; Response Content type: html" role="graphics-symbol" aria-roledescription="bar" d="M261,1h18v18h-18Z" fill="#4c78a8"/><path aria-label="Statistical organization: ILO; Response Content type: xml" role="graphics-symbol" aria-roledescription="bar" d="M21,41h18v18h-18Z" fill="#4c78a8"/><path aria-label="Statistical organization: ILO; Response Content type: xml" role="graphics-symbol" aria-roledescription="bar" d="M21,41h18v18h-18Z" fill="#4c78a8"/><path aria-label="Statistical organization: ILO; Response Content type: xml" role="graphics-symbol" aria-roledescription="bar" d="M21,41h18v18h-18Z" fill="#4c78a8"/><path aria-label="Statistical organization: ILO; Response Content type: xml" role="graphics-symbol" aria-roledescription="bar" d="M21,41h18v18h-18Z" fill="#4c78a8"/><path aria-label="Statistical organization: IMF; Response Content type: xml" role="graphics-symbol" aria-roledescription="bar" d="M1,41h18v18h-18Z" fill="#4c78a8"/><path aria-label="Statistical organization: IMF; Response Content type: xml" role="graphics-symbol" aria-roledescription="bar" d="M1,41h18v18h-18Z" fill="#4c78a8"/><path aria-label="Statistical organization: IMF; Response Content type: xml" role="graphics-symbol" aria-roledescription="bar" d="M1,41h18v18h-18Z" fill="#4c78a8"/><path aria-label="Statistical organization: IMF; Response Content type: xml" role="graphics-symbol" aria-roledescription="bar" d="M1,41h18v18h-18Z" fill="#4c78a8"/><path aria-label="Statistical organization: INSEE; Response Content type: json" role="graphics-symbol" aria-roledescription="bar" d="M181,21h18v18h-18Z" fill="#4c78a8"/><path aria-label="Statistical organization: INSEE; Response Content type: json" role="graphics-symbol" aria-roledescription="bar" d="M181,21h18v18h-18Z" fill="#4c78a8"/><path aria-label="Statistical organization: INSEE; Response Content type: json" role="graphics-symbol" aria-roledescription="bar" d="M181,21h18v18h-18Z" fill="#4c78a8"/><path aria-label="Statistical organization: INSEE; Response Content type: json" role="graphics-symbol" aria-roledescription="bar" d="M181,21h18v18h-18Z" fill="#4c78a8"/><path aria-label="Statistical organization: ISTAT; Response Content type: json" role="graphics-symbol" aria-roledescription="bar" d="M201,21h18v18h-18Z" fill="#4c78a8"/><path aria-label="Statistical organization: ISTAT; Response Content type: json" role="graphics-symbol" aria-roledescription="bar" d="M201,21h18v18h-18Z" fill="#4c78a8"/><path aria-label="Statistical organization: ISTAT; Response Content type: json" role="graphics-symbol" aria-roledescription="bar" d="M201,21h18v18h-18Z" fill="#4c78a8"/><path aria-label="Statistical organization: ISTAT; Response Content type: json" role="graphics-symbol" aria-roledescription="bar" d="M201,21h18v18h-18Z" fill="#4c78a8"/><path aria-label="Statistical organization: NB; Response Content type: xml" role="graphics-symbol" aria-roledescription="bar" d="M41,41h18v18h-18Z" fill="#4c78a8"/><path aria-label="Statistical organization: NB; Response Content type: xml" role="graphics-symbol" aria-roledescription="bar" d="M41,41h18v18h-18Z" fill="#4c78a8"/><path aria-label="Statistical organization: NB; Response Content type: xml" role="graphics-symbol" aria-roledescription="bar" d="M41,41h18v18h-18Z" fill="#4c78a8"/><path aria-label="Statistical organization: NB; Response Content type: xml" role="graphics-symbol" aria-roledescription="bar" d="M41,41h18v18h-18Z" fill="#4c78a8"/><path aria-label="Statistical organization: SGR; Response Content type: xml" role="graphics-symbol" aria-roledescription="bar" d="M61,41h18v18h-18Z" fill="#4c78a8"/><path aria-label="Statistical organization: SGR; Response Content type: xml" role="graphics-symbol" aria-roledescription="bar" d="M61,41h18v18h-18Z" fill="#4c78a8"/><path aria-label="Statistical organization: SGR; Response Content type: xml" role="graphics-symbol" aria-roledescription="bar" d="M61,41h18v18h-18Z" fill="#4c78a8"/><path aria-label="Statistical organization: SGR; Response Content type: xml" role="graphics-symbol" aria-roledescription="bar" d="M61,41h18v18h-18Z" fill="#4c78a8"/><path aria-label="Statistical organization: SPC; Response Content type: json" role="graphics-symbol" aria-roledescription="bar" d="M221,21h18v18h-18Z" fill="#4c78a8"/><path aria-label="Statistical organization: SPC; Response Content type: json" role="graphics-symbol" aria-roledescription="bar" d="M221,21h18v18h-18Z" fill="#4c78a8"/><path aria-label="Statistical organization: SPC; Response Content type: json" role="graphics-symbol" aria-roledescription="bar" d="M221,21h18v18h-18Z" fill="#4c78a8"/><path aria-label="Statistical organization: SPC; Response Content type: json" role="graphics-symbol" aria-roledescription="bar" d="M221,21h18v18h-18Z" fill="#4c78a8"/><path aria-label="Statistical organization: UNESCO; Response Content type: json" role="graphics-symbol" aria-roledescription="bar" d="M241,21h18v18h-18Z" fill="#4c78a8"/><path aria-label="Statistical organization: UNESCO; Response Content type: json" role="graphics-symbol" aria-roledescription="bar" d="M241,21h18v18h-18Z" fill="#4c78a8"/><path aria-label="Statistical organization: UNESCO; Response Content type: json" role="graphics-symbol" aria-roledescription="bar" d="M241,21h18v18h-18Z" fill="#4c78a8"/><path aria-label="Statistical organization: UNESCO; Response Content type: json" role="graphics-symbol" aria-roledescription="bar" d="M241,21h18v18h-18Z" fill="#4c78a8"/><path aria-label="Statistical organization: UNICEF; Response Content type: xml" role="graphics-symbol" aria-roledescription="bar" d="M81,41h18v18h-18Z" fill="#4c78a8"/><path aria-label="Statistical organization: UNICEF; Response Content type: xml" role="graphics-symbol" aria-roledescription="bar" d="M81,41h18v18h-18Z" fill="#4c78a8"/><path aria-label="Statistical organization: UNICEF; Response Content type: xml" role="graphics-symbol" aria-roledescription="bar" d="M81,41h18v18h-18Z" fill="#4c78a8"/><path aria-label="Statistical organization: UNICEF; Response Content type: xml" role="graphics-symbol" aria-roledescription="bar" d="M81,41h18v18h-18Z" fill="#4c78a8"/></g><g class="mark-group role-title"><g transform="translate(140,-59.208335876464844)"><path class="background" aria-hidden="true" d="M0,0h0v0h0Z" pointer-events="none"/><g><g class="mark-text role-title-text" role="graphics-symbol" aria-roledescription="title" aria-label="Title text 'Received response types for SDMX metadata endpoints'" pointer-events="none"><text text-anchor="middle" transform="translate(0,10)" font-family="sans-serif" font-size="13px" font-weight="bold" fill="#000" opacity="1">Received response types for SDMX metadata endpoints</text></g></g><path class="foreground" aria-hidden="true" d="" pointer-events="none" display="none"/></g></g></g><path class="foreground" aria-hidden="true" d="" display="none"/></g></g></g></svg>