<svg xmlns="http://www.w3.org/2000/svg" xmlns:xlink="http://www.w3.org/1999/xlink" version="1.1" class="marks" width="369" height="292" viewBox="0 0 369 292"><rect width="369" height="292" fill="white"/><g fill="none" stroke-miterlimit="10" transform="translate(34,22)"><g class="mark-group role-frame root" role="graphics-object" aria-roledescription="group mark container"><g transform="translate(0,0)"><path class="background" aria-hidden="true" d="M0.5,0.5h320v200h-320Z" stroke="#ddd"/><g><g class="mark-group role-axis" aria-hidden="true"><g transform="translate(0.5,0.5)"><path class="background" aria-hidden="true" d="M0,0h0v0h0Z" pointer-events="none"/><g><g class="mark-rule role-axis-grid" pointer-events="none"><line transform="translate(0,200)" x2="320" y2="0" stroke="#ddd" stroke-width="1" opacity="1"/><line transform="translate(0,156)" x2="320" y2="0" stroke="#ddd" stroke-width="1" opacity="1"/><line transform="translate(0,111)" x2="320" y2="0" stroke="#ddd" stroke-width="1" opacity="1"/><line transform="translate(0,67)" x2="320" y2="0" stroke="#ddd" stroke-width="1" opacity="1"/><line transform="translate(0,22)" x2="320" y2="0" stroke="#ddd" stroke-width="1" opacity="1"/></g></g><path class="foreground" aria-hidden="true" d="" pointer-events="none" display="none"/></g></g><g class="mark-group role-axis" role="graphics-symbol" aria-roledescription="axis" aria-label="X-axis titled 'Statistical organization' for a discrete scale with 16 values: ABS, ECB, ESTAT, ILO, IMF, ending with WB_WDI"><g transform="translate(0.5,200.5)"><path class="background" aria-hidden="true" d="M0,0h0v0h0Z" pointer-events="none"/><g><g class="mark-rule role-axis-tick" pointer-events="none"><line transform="translate(10,0)" x2="0" y2="5" stroke="#888" stroke-width="1" opacity="1"/><line transform="translate(30,0)" x2="0" y2="5" stroke="#888" stroke-width="1" opacity="1"/><line transform="translate(50,0)" x2="0" y2="5" stroke="#888" stroke-width="1" opacity="1"/><line transform="translate(70,0)" x2="0" y2="5" stroke="#888" stroke-width="1" opacity="1"/><line transform="translate(90,0)" x2="0" y2="5" stroke="#888" stroke-width="1" opacity="1"/><line transform="translate(110,0)" x2="0" y2="5" stroke="#888" stroke-width="1" opacity="1"/><line transform="translate(130,0)" x2="0" y2="5" stroke="#888" stroke-width="1" opacity="1"/><line transform="translate(150,0)" x2="0" y2="5" stroke="#888" stroke-width="1" opacity="1"/><line transform="translate(170,0)" x2="0" y2="5" stroke="#888" stroke-width="1" opacity="1"/><line transform="translate(190,0)" x2="0" y2="5" stroke="#888" stroke-width="1" opacity="1"/><line transform="translate(210,0)" x2="0" y2="5" stroke="#888" stroke-width="1" opacity="1"/><line transform="translate(230,0)" x2="0" y2="5" stroke="#888" stroke-width="1" opacity="1"/><line transform="translate(250,0)" x2="0" y2="5" stroke="#888" stroke-width="1" opacity="1"/><line transform="translate(270,0)" x2="0" y2="5" stroke="#888" stroke-width="1" opacity="1"/><line transform="translate(290,0)" x2="0" y2="5" stroke="#888" stroke-width="1" opacity="1"/><line transform="translate(310,0)" x2="0" y2="5" stroke="#888" stroke-width="1" opacity="1"/></g><g class="mark-text role-axis-label" pointer-events="none"><text text-anchor="end" transform="translate(9.5,7) rotate(270) translate(0,3)" font-family="sans-serif" font-size="10px" fill="#000" opacity="1">ABS</text><text text-anchor="end" transform="translate(29.5,7) rotate(270) translate(0,3)" font-family="sans-serif" font-size="10px" fill="#000" opacity="1">ECB</text><text text-anchor="end" transform="translate(49.5,7) rotate(270) translate(0,3)" font-family="sans-serif" font-size="10px" fill="#000" opacity="1">ESTAT</text><text text-anchor="end" transform="translate(69.5,7) rotate(270) translate(0,3)" font-family="sans-serif" font-size="10px" fill="#000" opacity="1">ILO</text><text text-anchor="end" transform="translate(89.5,7) rotate(270) translate(0,3)" font-family="sans-serif" font-size="10px" fill="#000" opacity="1">IMF</text><text text-anchor="end" transform="translate(109.5,7) rotate(270) translate(0,3)" font-family="sans-serif" font-size="10px" fill="#000" opacity="1">INEGI</text><text text-anchor="end" transform="translate(129.5,7) rotate(270) translate(0,3)" font-family="sans-serif" font-size="10px" fill="#000" opacity="1">INSEE</text><text text-anchor="end" transform="translate(149.5,7) rotate(270) translate(0,3)" font-family="sans-serif" font-size="10px" fill="#000" opacity="1">ISTAT</text><text text-anchor="end" transform="translate(169.5,7) rotate(270) translate(0,3)" font-family="sans-serif" font-size="10px" fill="#000" opacity="1">NB</text><text text-anchor="end" transform="translate(189.5,7) rotate(270) translate(0,3)" font-family="sans-serif" font-size="10px" fill="#000" opacity="1">SGR</text><text text-anchor="end" transform="translate(209.5,7) rotate(270) translate(0,3)" font-family="sans-serif" font-size="10px" fill="#000" opacity="1">SPC</text><text text-anchor="end" transform="translate(229.5,7) rotate(270) translate(0,3)" font-family="sans-serif" font-size="10px" fill="#000" opacity="1">UNESCO</text><text text-anchor="end" transform="translate(249.5,7) rotate(270) translate(0,3)" font-family="sans-serif" font-size="10px" fill="#000" opacity="1">UNICEF</text><text text-anchor="end" transform="translate(269.5,7) rotate(270) translate(0,3)" font-family="sans-serif" font-size="10px" fill="#000" opacity="1">UNSD</text><text text-anchor="end" transform="translate(289.5,7) rotate(270) translate(0,3)" font-family="sans-serif" font-size="10px" fill="#000" opacity="1">WB</text><text text-anchor="end" transform="translate(309.5,7) rotate(270) translate(0,3)" font-family="sans-serif" font-size="10px" fill="#000" opacity="1">WB_WDI</text></g><g class="mark-rule role-axis-domain" pointer-events="none"><line transform="translate(0,0)" x2="320" y2="0" stroke="#888" stroke-width="1" opacity="1"/></g><g class="mark-text role-axis-title" pointer-events="none"><text text-anchor="middle" transform="translate(160,62.31666564941406)" font-family="sans-serif" font-size="11px" font-weight="bold" fill="#000" opacity="1">Statistical organization</text></g></g><path class="foreground" aria-hidden="true" d="" pointer-events="none" display="none"/></g></g><g class="mark-group role-axis" role="graphics-symbol" aria-roledescription="axis" aria-label="Y-axis titled 'Average of duration' for a linear scale with values from 0 to 9"><g transform="translate(0.5,0.5)"><path class="background" aria-hidden="true" d="M0,0h0v0h0Z" pointer-events="none"/><g><g class="mark-rule role-axis-tick" pointer-events="none"><line transform="translate(0,200)" x2="-5" y2="0" stroke="#888" stroke-width="1" opacity="1"/><line transform="translate(0,156)" x2="-5" y2="0" stroke="#888" stroke-width="1" opacity="1"/><line transform="translate(0,111)" x2="-5" y2="0" stroke="#888" stroke-width="1" opacity="1"/><line transform="translate(0,67)" x2="-5" y2="0" stroke="#888" stroke-width="1" opacity="1"/><line transform="translate(0,22)" x2="-5" y2="0" stroke="#888" stroke-width="1" opacity="1"/></g><g class="mark-text role-axis-label" pointer-events="none"><text text-anchor="end" transform="translate(-7,203)" font-family="sans-serif" font-size="10px" fill="#000" opacity="1">0</text><text text-anchor="end" transform="translate(-7,158.55555555555557)" font-family="sans-serif" font-size="10px" fill="#000" opacity="1">2</text><text text-anchor="end" transform="translate(-7,114.11111111111111)" font-family="sans-serif" font-size="10px" fill="#000" opacity="1">4</text><text text-anchor="end" transform="translate(-7,69.66666666666667)" font-family="sans-serif" font-size="10px" fill="#000" opacity="1">6</text><text text-anchor="end" transform="translate(-7,25.222222222222232)" font-family="sans-serif" font-size="10px" fill="#000" opacity="1">8</text></g><g class="mark-rule role-axis-domain" pointer-events="none"><line transform="translate(0,200)" x2="0" y2="-200" stroke="#888" stroke-width="1" opacity="1"/></g><g class="mark-text role-axis-title" pointer-events="none"><text text-anchor="middle" transform="translate(-17.366666793823242,100) rotate(-90) translate(0,-2)" font-family="sans-serif" font-size="11px" font-weight="bold" fill="#000" opacity="1">Average of duration</text></g></g><path class="foreground" aria-hidden="true" d="" pointer-events="none" display="none"/></g></g><g class="mark-rect role-mark marks" role="graphics-object" aria-roledescription="rect mark container"><path aria-label="Statistical organization: ABS; Average of duration: 8.2287334875" role="graphics-symbol" aria-roledescription="bar" d="M1,17.139255833333333h18v182.86074416666668h-18Z" fill="#4c78a8"/><path aria-label="Statistical organization: ECB; Average of duration: 4.029169615" role="graphics-symbol" aria-roledescription="bar" d="M21,110.46289744444447h18v89.53710255555553h-18Z" fill="#4c78a8"/><path aria-label="Statistical organization: ESTAT; Average of duration: 2.1951432775" role="graphics-symbol" aria-roledescription="bar" d="M41,151.21903827777777h18v48.78096172222223h-18Z" fill="#4c78a8"/><path aria-label="Statistical organization: ILO; Average of duration: 2.549237355" role="graphics-symbol" aria-roledescription="bar" d="M61,143.350281h18v56.649719000000005h-18Z" fill="#4c78a8"/><path aria-label="Statistical organization: IMF; Average of duration: 0.80261434" role="graphics-symbol" aria-roledescription="bar" d="M81,182.1641257777778h18v17.835874222222202h-18Z" fill="#4c78a8"/><path aria-label="Statistical organization: INEGI; Average of duration: 4.9770782075" role="graphics-symbol" aria-roledescription="bar" d="M101,89.39826205555556h18v110.60173794444444h-18Z" fill="#4c78a8"/><path aria-label="Statistical organization: INSEE; Average of duration: 4.79913359" role="graphics-symbol" aria-roledescription="bar" d="M121,93.35258688888888h18v106.64741311111112h-18Z" fill="#4c78a8"/><path aria-label="Statistical organization: ISTAT; Average of duration: 4.8357170225" role="graphics-symbol" aria-roledescription="bar" d="M141,92.53962172222224h18v107.46037827777776h-18Z" fill="#4c78a8"/><path aria-label="Statistical organization: NB; Average of duration: 5.255484215" role="graphics-symbol" aria-roledescription="bar" d="M161,83.21146188888888h18v116.78853811111112h-18Z" fill="#4c78a8"/><path aria-label="Statistical organization: SGR; Average of duration: 4.15777143" role="graphics-symbol" aria-roledescription="bar" d="M181,107.60507933333332h18v92.39492066666668h-18Z" fill="#4c78a8"/><path aria-label="Statistical organization: SPC; Average of duration: 6.0295388975" role="graphics-symbol" aria-roledescription="bar" d="M201,66.01024672222222h18v133.98975327777777h-18Z" fill="#4c78a8"/><path aria-label="Statistical organization: UNESCO; Average of duration: 0.342563995" role="graphics-symbol" aria-roledescription="bar" d="M221,192.38746677777777h18v7.6125332222222255h-18Z" fill="#4c78a8"/><path aria-label="Statistical organization: UNICEF; Average of duration: 4.0988863575" role="graphics-symbol" aria-roledescription="bar" d="M241,108.9136365h18v91.0863635h-18Z" fill="#4c78a8"/><path aria-label="Statistical organization: UNSD; Average of duration: 6.7834658925" role="graphics-symbol" aria-roledescription="bar" d="M261,49.25631349999999h18v150.74368650000002h-18Z" fill="#4c78a8"/><path aria-label="Statistical organization: WB; Average of duration: 1.006962575" role="graphics-symbol" aria-roledescription="bar" d="M281,177.62305388888888h18v22.376946111111124h-18Z" fill="#4c78a8"/><path aria-label="Statistical organization: WB_WDI; Average of duration: 1.3704443075" role="graphics-symbol" aria-roledescription="bar" d="M301,169.54568205555555h18v30.454317944444455h-18Z" fill="#4c78a8"/></g><g class="mark-group role-title"><g transform="translate(160,-17)"><path class="background" aria-hidden="true" d="M0,0h0v0h0Z" pointer-events="none"/><g><g class="mark-text role-title-text" role="graphics-symbol" aria-roledescription="title" aria-label="Title text 'Average request duration for SDMX endpoints'" pointer-events="none"><text text-anchor="middle" transform="translate(0,10)" font-family="sans-serif" font-size="13px" font-weight="bold" fill="#000" opacity="1">Average request duration for SDMX endpoints</text></g></g><path class="foreground" aria-hidden="true" d="" pointer-events="none" display="none"/></g></g></g><path class="foreground" aria-hidden="true" d="" display="none"/></g></g></g></svg>