<svg xmlns="http://www.w3.org/2000/svg" xmlns:xlink="http://www.w3.org/1999/xlink" version="1.1" class="marks" width="549" height="207" viewBox="0 0 549 207"><rect width="549" height="207" fill="white"/><g fill="none" stroke-miterlimit="10" transform="translate(204,57)"><g class="mark-group role-frame root" role="graphics-object" aria-roledescription="group mark container"><g transform="translate(0,0)"><path class="background" aria-hidden="true" d="M0.5,0.5h260v80h-260Z" stroke="#ddd"/><g><g class="mark-group role-axis" role="graphics-symbol" aria-roledescription="axis" aria-label="X-axis titled 'Statistical organization' for a discrete scale with 13 values: ABS, ECB, IMF, INEGI, INSEE, ending with WB_WDI"><g transform="translate(0.5,80.5)"><path class="background" aria-hidden="true" d="M0,0h0v0h0Z" pointer-events="none"/><g><g class="mark-rule role-axis-tick" pointer-events="none"><line transform="translate(10,0)" x2="0" y2="5" stroke="#888" stroke-width="1" opacity="1"/><line transform="translate(30,0)" x2="0" y2="5" stroke="#888" stroke-width="1" opacity="1"/><line transform="translate(50,0)" x2="0" y2="5" stroke="#888" stroke-width="1" opacity="1"/><line transform="translate(70,0)" x2="0" y2="5" stroke="#888" stroke-width="1" opacity="1"/><line transform="translate(90,0)" x2="0" y2="5" stroke="#888" stroke-width="1" opacity="1"/><line transform="translate(110,0)" x2="0" y2="5" stroke="#888" stroke-width="1" opacity="1"/><line transform="translate(130,0)" x2="0" y2="5" stroke="#888" stroke-width="1" opacity="1"/><line transform="translate(150,0)" x2="0" y2="5" stroke="#888" stroke-width="1" opacity="1"/><line transform="translate(170,0)" x2="0" y2="5" stroke="#888" stroke-width="1" opacity="1"/><line transform="translate(190,0)" x2="0" y2="5" stroke="#888" stroke-width="1" opacity="1"/><line transform="translate(210,0)" x2="0" y2="5" stroke="#888" stroke-width="1" opacity="1"/><line transform="translate(230,0)" x2="0" y2="5" stroke="#888" stroke-width="1" opacity="1"/><line transform="translate(250,0)" x2="0" y2="5" stroke="#888" stroke-width="1" opacity="1"/></g><g class="mark-text role-axis-label" pointer-events="none"><text text-anchor="end" transform="translate(9.5,7) rotate(270) translate(0,3)" font-family="sans-serif" font-size="10px" fill="#000" opacity="1">ABS</text><text text-anchor="end" transform="translate(29.5,7) rotate(270) translate(0,3)" font-family="sans-serif" font-size="10px" fill="#000" opacity="1">ECB</text><text text-anchor="end" transform="translate(49.5,7) rotate(270) translate(0,3)" font-family="sans-serif" font-size="10px" fill="#000" opacity="1">IMF</text><text text-anchor="end" transform="translate(69.5,7) rotate(270) translate(0,3)" font-family="sans-serif" font-size="10px" fill="#000" opacity="1">INEGI</text><text text-anchor="end" transform="translate(89.5,7) rotate(270) translate(0,3)" font-family="sans-serif" font-size="10px" fill="#000" opacity="1">INSEE</text><text text-anchor="end" transform="translate(109.5,7) rotate(270) translate(0,3)" font-family="sans-serif" font-size="10px" fill="#000" opacity="1">ISTAT</text><text text-anchor="end" transform="translate(129.5,7) rotate(270) translate(0,3)" font-family="sans-serif" font-size="10px" fill="#000" opacity="1">NB</text><text text-anchor="end" transform="translate(149.5,7) rotate(270) translate(0,3)" font-family="sans-serif" font-size="10px" fill="#000" opacity="1">SGR</text><text text-anchor="end" transform="translate(169.5,7) rotate(270) translate(0,3)" font-family="sans-serif" font-size="10px" fill="#000" opacity="1">SPC</text><text text-anchor="end" transform="translate(189.5,7) rotate(270) translate(0,3)" font-family="sans-serif" font-size="10px" fill="#000" opacity="1">UNICEF</text><text text-anchor="end" transform="translate(209.5,7) rotate(270) translate(0,3)" font-family="sans-serif" font-size="10px" fill="#000" opacity="1">UNSD</text><text text-anchor="end" transform="translate(229.5,7) rotate(270) translate(0,3)" font-family="sans-serif" font-size="10px" fill="#000" opacity="1">WB</text><text text-anchor="end" transform="translate(249.5,7) rotate(270) translate(0,3)" font-family="sans-serif" font-size="10px" fill="#000" opacity="1">WB_WDI</text></g><g class="mark-rule role-axis-domain" pointer-events="none"><line transform="translate(0,0)" x2="260" y2="0" stroke="#888" stroke-width="1" opacity="1"/></g><g class="mark-text role-axis-title" pointer-events="none"><text text-anchor="middle" transform="translate(130,62.28333282470703)" font-family="sans-serif" font-size="11px" font-weight="bold" fill="#000" opacity="1">Statistical organization</text></g></g><path class="foreground" aria-hidden="true" d="" pointer-events="none" display="none"/></g></g><g class="mark-group role-axis" role="graphics-symbol" aria-roledescription="axis" aria-label="Y-axis titled 'Content type supported' for a discrete scale with 4 values: application/json, application/vnd.sdmx.structure+json;version=1.0.0, application/vnd.sdmx.structure+xml;version=2.1, application/xml"><g transform="translate(0.5,0.5)"><path class="background" aria-hidden="true" d="M0,0h0v0h0Z" pointer-events="none"/><g><g class="mark-rule role-axis-tick" pointer-events="none"><line transform="translate(0,10)" x2="-5" y2="0" stroke="#888" stroke-width="1" opacity="1"/><line transform="translate(0,30)" x2="-5" y2="0" stroke="#888" stroke-width="1" opacity="1"/><line transform="translate(0,50)" x2="-5" y2="0" stroke="#888" stroke-width="1" opacity="1"/><line transform="translate(0,70)" x2="-5" y2="0" stroke="#888" stroke-width="1" opacity="1"/></g><g class="mark-text role-axis-label" pointer-events="none"><text text-anchor="end" transform="translate(-7,12.5)" font-family="sans-serif" font-size="10px" fill="#000" opacity="1">json</text><text text-anchor="end" transform="translate(-7,32.5)" font-family="sans-serif" font-size="10px" fill="#000" opacity="1">vnd.sdmx.structure+json;version…</text><text text-anchor="end" transform="translate(-7,52.5)" font-family="sans-serif" font-size="10px" fill="#000" opacity="1">vnd.sdmx.structure+xml;version…</text><text text-anchor="end" transform="translate(-7,72.5)" font-family="sans-serif" font-size="10px" fill="#000" opacity="1">xml</text></g><g class="mark-rule role-axis-domain" pointer-events="none"><line transform="translate(0,0)" x2="0" y2="80" stroke="#888" stroke-width="1" opacity="1"/></g><g class="mark-text role-axis-title" pointer-events="none"><text text-anchor="middle" transform="translate(-187.38333129882812,40) rotate(-90) translate(0,-2)" font-family="sans-serif" font-size="11px" font-weight="bold" fill="#000" opacity="1">Content type supported</text></g></g><path class="foreground" aria-hidden="true" d="" pointer-events="none" display="none"/></g></g><g class="mark-rect role-mark marks" role="graphics-object" aria-roledescription="rect mark container"><path aria-label="Statistical organization: ABS; Content type supported: application/xml" role="graphics-symbol" aria-roledescription="bar" d="M1,61h18v18h-18Z" fill="#4c78a8"/><path aria-label="Statistical organization: ABS; Content type supported: application/json" role="graphics-symbol" aria-roledescription="bar" d="M1,1h18v18h-18Z" fill="#4c78a8"/><path aria-label="Statistical organization: ABS; Content type supported: application/vnd.sdmx.structure+xml;version=2.1" role="graphics-symbol" aria-roledescription="bar" d="M1,41h18v18h-18Z" fill="#4c78a8"/><path aria-label="Statistical organization: ECB; Content type supported: application/xml" role="graphics-symbol" aria-roledescription="bar" d="M21,61h18v18h-18Z" fill="#4c78a8"/><path aria-label="Statistical organization: ECB; Content type supported: application/vnd.sdmx.structure+xml;version=2.1" role="graphics-symbol" aria-roledescription="bar" d="M21,41h18v18h-18Z" fill="#4c78a8"/><path aria-label="Statistical organization: IMF; Content type supported: application/xml" role="graphics-symbol" aria-roledescription="bar" d="M41,61h18v18h-18Z" fill="#4c78a8"/><path aria-label="Statistical organization: IMF; Content type supported: application/json" role="graphics-symbol" aria-roledescription="bar" d="M41,1h18v18h-18Z" fill="#4c78a8"/><path aria-label="Statistical organization: IMF; Content type supported: application/vnd.sdmx.structure+xml;version=2.1" role="graphics-symbol" aria-roledescription="bar" d="M41,41h18v18h-18Z" fill="#4c78a8"/><path aria-label="Statistical organization: INEGI; Content type supported: application/xml" role="graphics-symbol" aria-roledescription="bar" d="M61,61h18v18h-18Z" fill="#4c78a8"/><path aria-label="Statistical organization: INEGI; Content type supported: application/json" role="graphics-symbol" aria-roledescription="bar" d="M61,1h18v18h-18Z" fill="#4c78a8"/><path aria-label="Statistical organization: INEGI; Content type supported: application/vnd.sdmx.structure+xml;version=2.1" role="graphics-symbol" aria-roledescription="bar" d="M61,41h18v18h-18Z" fill="#4c78a8"/><path aria-label="Statistical organization: INSEE; Content type supported: application/xml" role="graphics-symbol" aria-roledescription="bar" d="M81,61h18v18h-18Z" fill="#4c78a8"/><path aria-label="Statistical organization: INSEE; Content type supported: application/vnd.sdmx.structure+xml;version=2.1" role="graphics-symbol" aria-roledescription="bar" d="M81,41h18v18h-18Z" fill="#4c78a8"/><path aria-label="Statistical organization: ISTAT; Content type supported: application/xml" role="graphics-symbol" aria-roledescription="bar" d="M101,61h18v18h-18Z" fill="#4c78a8"/><path aria-label="Statistical organization: ISTAT; Content type supported: application/json" role="graphics-symbol" aria-roledescription="bar" d="M101,1h18v18h-18Z" fill="#4c78a8"/><path aria-label="Statistical organization: ISTAT; Content type supported: application/vnd.sdmx.structure+xml;version=2.1" role="graphics-symbol" aria-roledescription="bar" d="M101,41h18v18h-18Z" fill="#4c78a8"/><path aria-label="Statistical organization: NB; Content type supported: application/xml" role="graphics-symbol" aria-roledescription="bar" d="M121,61h18v18h-18Z" fill="#4c78a8"/><path aria-label="Statistical organization: NB; Content type supported: application/json" role="graphics-symbol" aria-roledescription="bar" d="M121,1h18v18h-18Z" fill="#4c78a8"/><path aria-label="Statistical organization: NB; Content type supported: application/vnd.sdmx.structure+xml;version=2.1" role="graphics-symbol" aria-roledescription="bar" d="M121,41h18v18h-18Z" fill="#4c78a8"/><path aria-label="Statistical organization: NB; Content type supported: application/vnd.sdmx.structure+json;version=1.0.0" role="graphics-symbol" aria-roledescription="bar" d="M121,21h18v18h-18Z" fill="#4c78a8"/><path aria-label="Statistical organization: SGR; Content type supported: application/xml" role="graphics-symbol" aria-roledescription="bar" d="M141,61h18v18h-18Z" fill="#4c78a8"/><path aria-label="Statistical organization: SGR; Content type supported: application/json" role="graphics-symbol" aria-roledescription="bar" d="M141,1h18v18h-18Z" fill="#4c78a8"/><path aria-label="Statistical organization: SGR; Content type supported: application/vnd.sdmx.structure+xml;version=2.1" role="graphics-symbol" aria-roledescription="bar" d="M141,41h18v18h-18Z" fill="#4c78a8"/><path aria-label="Statistical organization: SPC; Content type supported: application/xml" role="graphics-symbol" aria-roledescription="bar" d="M161,61h18v18h-18Z" fill="#4c78a8"/><path aria-label="Statistical organization: SPC; Content type supported: application/json" role="graphics-symbol" aria-roledescription="bar" d="M161,1h18v18h-18Z" fill="#4c78a8"/><path aria-label="Statistical organization: SPC; Content type supported: application/vnd.sdmx.structure+xml;version=2.1" role="graphics-symbol" aria-roledescription="bar" d="M161,41h18v18h-18Z" fill="#4c78a8"/><path aria-label="Statistical organization: UNICEF; Content type supported: application/xml" role="graphics-symbol" aria-roledescription="bar" d="M181,61h18v18h-18Z" fill="#4c78a8"/><path aria-label="Statistical organization: UNICEF; Content type supported: application/json" role="graphics-symbol" aria-roledescription="bar" d="M181,1h18v18h-18Z" fill="#4c78a8"/><path aria-label="Statistical organization: UNICEF; Content type supported: application/vnd.sdmx.structure+xml;version=2.1" role="graphics-symbol" aria-roledescription="bar" d="M181,41h18v18h-18Z" fill="#4c78a8"/><path aria-label="Statistical organization: UNICEF; Content type supported: application/vnd.sdmx.structure+json;version=1.0.0" role="graphics-symbol" aria-roledescription="bar" d="M181,21h18v18h-18Z" fill="#4c78a8"/><path aria-label="Statistical organization: UNSD; Content type supported: application/xml" role="graphics-symbol" aria-roledescription="bar" d="M201,61h18v18h-18Z" fill="#4c78a8"/><path aria-label="Statistical organization: UNSD; Content type supported: application/json" role="graphics-symbol" aria-roledescription="bar" d="M201,1h18v18h-18Z" fill="#4c78a8"/><path aria-label="Statistical organization: UNSD; Content type supported: application/vnd.sdmx.structure+xml;version=2.1" role="graphics-symbol" aria-roledescription="bar" d="M201,41h18v18h-18Z" fill="#4c78a8"/><path aria-label="Statistical organization: WB; Content type supported: application/xml" role="graphics-symbol" aria-roledescription="bar" d="M221,61h18v18h-18Z" fill="#4c78a8"/><path aria-label="Statistical organization: WB; Content type supported: application/json" role="graphics-symbol" aria-roledescription="bar" d="M221,1h18v18h-18Z" fill="#4c78a8"/><path aria-label="Statistical organization: WB; Content type supported: application/vnd.sdmx.structure+xml;version=2.1" role="graphics-symbol" aria-roledescription="bar" d="M221,41h18v18h-18Z" fill="#4c78a8"/><path aria-label="Statistical organization: WB_WDI; Content type supported: application/xml" role="graphics-symbol" aria-roledescription="bar" d="M241,61h18v18h-18Z" fill="#4c78a8"/><path aria-label="Statistical organization: WB_WDI; Content type supported: application/json" role="graphics-symbol" aria-roledescription="bar" d="M241,1h18v18h-18Z" fill="#4c78a8"/><path aria-label="Statistical organization: WB_WDI; Content type supported: application/vnd.sdmx.structure+xml;version=2.1" role="graphics-symbol" aria-roledescription="bar" d="M241,41h18v18h-18Z" fill="#4c78a8"/><path aria-label="Statistical organization: WB_WDI; Content type supported: application/vnd.sdmx.structure+json;version=1.0.0" role="graphics-symbol" aria-roledescription="bar" d="M241,21h18v18h-18Z" fill="#4c78a8"/></g><g class="mark-group role-title"><g transform="translate(130,-51.166664123535156)"><path class="background" aria-hidden="true" d="M0,0h0v0h0Z" pointer-events="none"/><g><g class="mark-text role-title-text" role="graphics-symbol" aria-roledescription="title" aria-label="Title text 'Supported response types for SDMX metadata endpoints'" pointer-events="none"><text text-anchor="middle" transform="translate(0,10)" font-family="sans-serif" font-size="13px" font-weight="bold" fill="#000" opacity="1">Supported response types for SDMX metadata endpoints</text></g></g><path class="foreground" aria-hidden="true" d="" pointer-events="none" display="none"/></g></g></g><path class="foreground" aria-hidden="true" d="" display="none"/></g></g></g></svg>